# File created by Blade
# Date/Time:  Tue Apr 07 20:29:34 2015
# Frame Rate: 120.000 fps
#------------------------------------------------------
:FULLY-SPECIFIED
:DEGREES
2869
root 2.345486 34.240629 -4.797746 17.665264 -23.618481 -39.666073
Spine 1.936209 20.938645 27.029723
Head 11.553766 -7.680376 10.086519
LeftShoulder -24.962842 42.624853 14.952312
LeftArm 51.485015 -51.214369 -74.186983
LeftForeArm 6.875314 0.000000 9.492871
LeftHand 9.453344 -0.000000 1.767745
LeftHandThumb1 -26.253704 0.000000 33.147579
RightShoulder 3.187604 10.909452 -19.886720
RightArm 20.818746 13.730405 59.695505
RightForeArm 3.919490 -0.000000 19.912920
RightHand 3.114809 -0.000000 11.436122
RightHandThumb1 -24.326973 -0.000000 -32.862282
LeftUpLeg -4.672873 -0.548096 30.109726
LeftLeg 14.266412 -0.000000 -0.000000
LeftFoot -11.421700 22.756215 -9.147554
LeftToeBase -11.937531 -0.000000 0.000000
RightUpLeg -61.403857 -38.103990 -24.462140
RightLeg 68.979076 -0.000000 -0.000000
RightFoot 41.237910 -19.539136 0.043761
RightToeBase 32.988132 -0.000000 -0.000000
2870
root 2.317813 34.296656 -4.776362 18.090477 -23.116446 -40.225409
Spine 1.443555 21.076303 27.592462
Head 11.521122 -7.892534 10.274121
LeftShoulder -24.986341 42.709483 15.031553
LeftArm 51.567304 -51.513500 -74.398565
LeftForeArm 6.982757 -0.000000 9.339893
LeftHand 9.361475 -0.000000 2.278420
LeftHandThumb1 -26.253704 0.000000 33.147579
RightShoulder 2.982618 10.770613 -19.733610
RightArm 20.600109 13.885109 59.509115
RightForeArm 3.999659 -0.000000 19.718414
RightHand 3.057758 -0.000000 11.478083
RightHandThumb1 -24.326973 -0.000000 -32.862282
LeftUpLeg -4.855804 -0.738183 30.817632
LeftLeg 13.976102 -0.000000 -0.000000
LeftFoot -11.027272 22.760724 -9.014187
LeftToeBase -11.933259 -0.000000 0.000000
RightUpLeg -59.979598 -37.499142 -25.562444
RightLeg 69.259484 -0.000000 -0.000000
RightFoot 41.337435 -19.075304 -0.158529
RightToeBase 32.791963 -0.000000 -0.000000
2871
root 2.292182 34.348849 -4.759920 18.535026 -22.638498 -40.752389
Spine 0.945335 21.174008 28.110471
Head 11.438648 -8.035280 10.467955
LeftShoulder -25.050784 42.735549 15.104741
LeftArm 51.077139 -51.607389 -73.994086
LeftForeArm 6.744217 -0.000000 9.245232
LeftHand 9.223748 -0.000000 2.340177
LeftHandThumb1 -26.253704 0.000000 33.147579
RightShoulder 2.831457 10.752581 -19.607202
RightArm 20.351939 14.154590 59.428796
RightForeArm 3.880627 0.000000 19.484139
RightHand 3.093946 0.000000 11.571878
RightHandThumb1 -24.326973 -0.000000 -32.862282
LeftUpLeg -5.077332 -0.894245 31.492305
LeftLeg 13.701423 -0.000000 -0.000000
LeftFoot -10.644790 22.755332 -8.850897
LeftToeBase -12.073781 -0.000000 0.000000
RightUpLeg -58.673563 -36.863486 -26.622977
RightLeg 69.526822 -0.000000 -0.000000
RightFoot 41.453801 -18.547755 -0.323827
RightToeBase 32.974852 -0.000000 -0.000000
2872
root 2.266700 34.397680 -4.744308 18.946755 -22.168391 -41.236408
Spine 0.478977 21.258267 28.596690
Head 11.307849 -8.195921 10.638262
LeftShoulder -25.014429 42.681596 15.274666
LeftArm 50.711373 -51.905712 -73.869417
LeftForeArm 6.784454 -0.000000 9.107413
LeftHand 9.105597 -0.000000 2.210440
LeftHandThumb1 -26.253704 0.000000 33.147579
RightShoulder 2.680604 10.683254 -19.493279
RightArm 20.143193 14.406703 59.332616
RightForeArm 3.884867 -0.000000 19.303890
RightHand 3.060314 -0.000000 11.578526
RightHandThumb1 -24.326973 -0.000000 -32.862282
LeftUpLeg -5.279403 -1.044070 32.129130
LeftLeg 13.396965 -0.000000 -0.000000
LeftFoot -10.264904 22.770903 -8.664947
LeftToeBase -12.167077 -0.000000 0.000000
RightUpLeg -57.425068 -36.236448 -27.671293
RightLeg 69.790281 -0.000000 -0.000000
RightFoot 41.602377 -18.228382 -0.426256
RightToeBase 32.843020 -0.000000 -0.000000
2873
root 2.242051 34.445846 -4.726017 19.361140 -21.738945 -41.743662
Spine 0.036085 21.360617 29.103741
Head 11.157653 -8.299351 10.834908
LeftShoulder -25.065080 42.724846 15.381323
LeftArm 50.526920 -52.216582 -73.904235
LeftForeArm 6.782286 -0.000000 8.952314
LeftHand 9.032525 0.000000 2.200991
LeftHandThumb1 -26.253704 0.000000 33.147579
RightShoulder 2.534463 10.668851 -19.361906
RightArm 19.905518 14.606585 59.205841
RightForeArm 3.859895 -0.000000 19.123219
RightHand 3.185911 -0.000000 11.637424
RightHandThumb1 -24.326973 -0.000000 -32.862282
LeftUpLeg -5.433465 -1.153077 32.770112
LeftLeg 13.066452 -0.000000 -0.000000
LeftFoot -9.840198 22.805923 -8.372884
LeftToeBase -12.314104 -0.000000 0.000000
RightUpLeg -56.251562 -35.574733 -28.634637
RightLeg 70.028034 -0.000000 -0.000000
RightFoot 41.751810 -18.039392 -0.525017
RightToeBase 33.009709 -0.000000 -0.000000
2874
root 2.216839 34.491122 -4.716196 19.756509 -21.270781 -42.202589
Spine -0.396906 21.406269 29.573381
Head 10.973701 -8.352236 11.008841
LeftShoulder -25.077420 42.729943 15.503639
LeftArm 50.234792 -52.539171 -73.812022
LeftForeArm 6.745625 -0.000000 8.749460
LeftHand 8.825564 -0.000000 2.399957
LeftHandThumb1 -26.253704 0.000000 33.147579
RightShoulder 2.398794 10.694685 -19.238166
RightArm 19.676513 14.821851 59.083305
RightForeArm 3.884911 -0.000000 18.963856
RightHand 3.070235 0.000000 11.524849
RightHandThumb1 -24.326973 -0.000000 -32.862282
LeftUpLeg -5.625630 -1.393622 33.393606
LeftLeg 12.731971 -0.000000 -0.000000
LeftFoot -9.496317 22.919190 -8.206794
LeftToeBase -12.304835 -0.000000 0.000000
RightUpLeg -55.081775 -34.893050 -29.673136
RightLeg 70.311368 -0.000000 -0.000000
RightFoot 41.819143 -17.399217 -0.735689
RightToeBase 32.980834 -0.000000 -0.000000
2875
root 2.195391 34.534037 -4.708162 20.136556 -20.821397 -42.637101
Spine -0.800926 21.415897 30.035433
Head 10.764163 -8.357121 11.152345
LeftShoulder -25.130543 42.717942 15.617894
LeftArm 50.189789 -52.986260 -74.035507
LeftForeArm 6.979296 -0.000000 8.496908
LeftHand 8.816869 -0.000000 2.375450
LeftHandThumb1 -26.253704 0.000000 33.147579
RightShoulder 2.286869 10.633181 -19.125926
RightArm 19.569502 15.073840 58.985855
RightForeArm 3.868487 -0.000000 18.784152
RightHand 3.124040 -0.000000 11.545055
RightHandThumb1 -24.326973 -0.000000 -32.862282
LeftUpLeg -5.818366 -1.591435 33.992986
LeftLeg 12.412385 -0.000000 -0.000000
LeftFoot -9.167538 22.965243 -8.050394
LeftToeBase -12.357396 -0.000000 0.000000
RightUpLeg -54.012646 -34.250291 -30.627614
RightLeg 70.563720 -0.000000 -0.000000
RightFoot 42.007428 -16.748891 -1.148529
RightToeBase 32.679921 -0.000000 -0.000000
2876
root 2.176665 34.573866 -4.690978 20.505561 -20.324480 -43.038713
Spine -1.243422 21.365782 30.498339
Head 10.580000 -8.361660 11.264883
LeftShoulder -25.136659 42.654099 15.753487
LeftArm 50.419810 -53.678071 -74.640718
LeftForeArm 7.456554 0.000000 8.190671
LeftHand 8.824575 0.000000 2.206293
LeftHandThumb1 -26.253704 0.000000 33.147579
RightShoulder 2.175239 10.692599 -19.042993
RightArm 19.329669 15.264534 58.883172
RightForeArm 3.781856 -0.000000 18.680332
RightHand 3.125295 0.000000 11.547770
RightHandThumb1 -24.326973 -0.000000 -32.862282
LeftUpLeg -6.013756 -1.814702 34.568106
LeftLeg 12.046743 -0.000000 -0.000000
LeftFoot -8.778310 23.056148 -7.799630
LeftToeBase -12.523731 -0.000000 0.000000
RightUpLeg -52.914938 -33.701930 -31.584335
RightLeg 70.736430 -0.000000 -0.000000
RightFoot 42.131568 -16.193243 -1.385951
RightToeBase 32.525212 -0.000000 -0.000000
2877
root 2.156565 34.613451 -4.681889 20.935049 -19.847049 -43.468105
Spine -1.716776 21.366573 30.956090
Head 10.363995 -8.343738 11.398949
LeftShoulder -25.191665 42.687727 15.857297
LeftArm 50.183551 -54.045166 -74.663702
LeftForeArm 7.476331 -0.000000 8.061772
LeftHand 8.604910 -0.000000 2.353172
LeftHandThumb1 -26.253704 0.000000 33.147579
RightShoulder 2.048931 10.712321 -18.954200
RightArm 19.142715 15.439751 58.781810
RightForeArm 3.746325 -0.000000 18.599885
RightHand 3.089857 -0.000000 11.570102
RightHandThumb1 -24.326973 -0.000000 -32.862282
LeftUpLeg -6.237430 -2.003325 35.184861
LeftLeg 11.673522 -0.000000 -0.000000
LeftFoot -8.558559 23.102702 -7.786818
LeftToeBase -12.450333 -0.000000 0.000000
RightUpLeg -51.948225 -33.130700 -32.448300
RightLeg 70.894497 -0.000000 -0.000000
RightFoot 42.161712 -15.840380 -1.412329
RightToeBase 32.944855 -0.000000 -0.000000
2878
root 2.135210 34.650902 -4.680674 21.385166 -19.407189 -43.882833
Spine -2.184150 21.384077 31.361416
Head 10.131143 -8.305268 11.588796
LeftShoulder -25.187582 42.635680 16.053851
LeftArm 49.804254 -54.446878 -74.638135
LeftForeArm 7.374353 -0.000000 7.979527
LeftHand 8.377387 -0.000000 2.367630
LeftHandThumb1 -26.253704 0.000000 33.147579
RightShoulder 1.935825 10.675176 -18.821055
RightArm 19.040632 15.587530 58.644931
RightForeArm 3.770838 -0.000000 18.527206
RightHand 3.063152 -0.000000 11.519417
RightHandThumb1 -24.326973 -0.000000 -32.862282
LeftUpLeg -6.481620 -2.002590 35.783241
LeftLeg 11.316390 -0.000000 -0.000000
LeftFoot -8.249418 23.063167 -7.605975
LeftToeBase -12.529866 -0.000000 0.000000
RightUpLeg -51.098257 -32.546394 -33.265856
RightLeg 71.072855 -0.000000 -0.000000
RightFoot 42.203562 -15.272802 -1.666117
RightToeBase 33.153292 -0.000000 -0.000000
2879
root 2.114476 34.686120 -4.682762 21.842221 -18.997258 -44.269958
Spine -2.638193 21.430778 31.723690
Head 9.865931 -8.271305 11.800965
LeftShoulder -25.210682 42.644352 16.225277
LeftArm 49.519120 -54.830961 -74.651880
LeftForeArm 7.187464 0.000000 7.849951
LeftHand 8.412225 -0.000000 2.414502
LeftHandThumb1 -26.253704 0.000000 33.147579
RightShoulder 1.807602 10.715637 -18.689064
RightArm 18.842156 15.636598 58.467692
RightForeArm 3.914168 -0.000000 18.539120
RightHand 3.080744 -0.000000 11.498234
RightHandThumb1 -24.326973 -0.000000 -32.862282
LeftUpLeg -6.717841 -1.967443 36.350503
LeftLeg 10.936546 -0.000000 -0.000000
LeftFoot -7.951567 23.003721 -7.464446
LeftToeBase -12.523738 -0.000000 0.000000
RightUpLeg -50.376078 -32.023924 -34.003127
RightLeg 71.234660 -0.000000 -0.000000
RightFoot 42.326217 -14.912071 -2.008741
RightToeBase 32.970389 -0.000000 -0.000000
